<?xml version="1.0" encoding="UTF-8" standalone="no"?>
<svg
   xmlns:dc="http://purl.org/dc/elements/1.1/"
   xmlns:cc="http://creativecommons.org/ns#"
   xmlns:rdf="http://www.w3.org/1999/02/22-rdf-syntax-ns#"
   xmlns:svg="http://www.w3.org/2000/svg"
   xmlns="http://www.w3.org/2000/svg"
   viewBox="0 0 452.78851 185.92435"
   height="185.92435"
   width="452.78851"
   xml:space="preserve"
   version="1.1"
   id="svg2"><metadata
     id="metadata8"><rdf:RDF><cc:Work
         rdf:about=""><dc:format>image/svg+xml</dc:format><dc:type
           rdf:resource="http://purl.org/dc/dcmitype/StillImage" /><dc:title></dc:title></cc:Work></rdf:RDF></metadata><defs
     id="defs6" /><g
     transform="matrix(1.25,0,0,-1.25,-50.23625,751.96907)"
     id="g10"><path
       id="path176"
       style="fill:#231f20;fill-opacity:1;fill-rule:nonzero;stroke:none"
       d="m 48.189,564.491 345.827,0 0,-0.51 -345.827,0 0,0.51 z" /><path
       id="path178"
       style="fill:#231f20;fill-opacity:1;fill-rule:nonzero;stroke:none"
       d="m 48.189,492.491 345.827,0 0,-0.51 -345.827,0 0,0.51 z" /><path
       id="path180"
       style="fill:#231f20;fill-opacity:1;fill-rule:nonzero;stroke:none"
       d="m 48.189,537.505 345.827,0 0,-0.51 -345.827,0 0,0.51 z" /><text
       id="text182"
       style="font-variant:normal;font-weight:normal;font-size:6.99989986px;font-family:AdvPS6F00;-inkscape-font-specification:AdvPS6F00;writing-mode:lr-tb;fill:#231f20;fill-opacity:1;fill-rule:nonzero;stroke:none"
       transform="matrix(1,0,0,-1,205.1149,588.4723)"><tspan
         id="tspan184"
         y="0"
         x="0 5.0560279 10.840045 16.260067 21.316095 28.459494">TABLE1</tspan><tspan
         id="tspan186"
         y="8.9577723"
         x="-137.76433 -132.71181 -127.29528 -121.51476 -115.73425 -109.95373 -103.00423 -99.918671 -92.37838 -87.75985 -81.979332 -76.877098 -73.815346 -68.398827 -60.518337 -55.899803 -50.119286 -45.500751 -42.415195 -37.312965 -34.251209 -28.470694 -22.690176 -15.943672 -10.163155 -3.4733503 3.4761503 9.2566681 12.706219 18.486736 26.027029 31.809645 36.862175 42.278694 49.228195 55.008713 62.889202 67.481133 73.32045 78.706177 83.758705 86.844261 91.89679 98.643288 101.72884 109.60934 113.86388 118.11842 122.37296 128.77927 136.16275 139.24831 144.35054 152.23102 157.28355 164.66705">ECONOMICPOLICYPOSITIONSOFMAJORGERMANPARTIESIN1965WITHTWO</tspan><tspan
         id="tspan188"
         y="17.972242"
         x="-107.54716 -101.70785 -98.646088 -94.030357 -89.381721 -84.331993 -78.918274 -73.868546 -68.090828 -60.94743 -55.108112 -50.058384 -44.644661 -39.996029 -36.934273 -31.156555 -25.317238 -18.627434 -12.844816 -6.0983129 -1.0527849 4.7249327 11.86833 17.282053 23.059771">DIFFERENTVERSIONSOFTHECDU</tspan></text>
<text
       id="text190"
       style="font-variant:normal;font-weight:normal;font-size:6.99989986px;font-family:AdvP4C4E59;-inkscape-font-specification:AdvP4C4E59;writing-mode:lr-tb;fill:#231f20;fill-opacity:1;fill-rule:nonzero;stroke:none"
       transform="matrix(1,0,0,-1,233.97129,570.50006)"><tspan
         id="tspan192"
         y="0"
         x="0">/</tspan></text>
<text
       id="text194"
       style="font-variant:normal;font-weight:normal;font-size:6.99989986px;font-family:AdvPS6F00;-inkscape-font-specification:AdvPS6F00;writing-mode:lr-tb;fill:#231f20;fill-opacity:1;fill-rule:nonzero;stroke:none"
       transform="matrix(1,0,0,-1,238.22303,570.50006)"><tspan
         id="tspan196"
         y="0"
         x="0 5.4165225 10.035057 17.972242 23.024771 28.077299 33.129826 38.546349 43.598877 46.717331 52.497849 60.378338 67.327835 73.108353 78.88887 81.974426 86.623062 91.668587 96.317223 101.36275">CSUELECTIONMANIFESTO</tspan></text>
<text
       id="text198"
       style="font-variant:normal;font-weight:normal;font-size:7.99989986px;font-family:AdvPS6F01;-inkscape-font-specification:AdvPS6F01;writing-mode:lr-tb;fill:#231f20;fill-opacity:1;fill-rule:nonzero;stroke:none"
       transform="matrix(1,0,0,-1,128.8629,543.5148)"><tspan
         id="tspan200"
         y="0"
         x="0 4.4159446 7.9919 11.99185 15.567805">Score</tspan><tspan
         id="tspan202"
         y="-8.9574881"
         x="40.648293 44.648243 48.648193 58.960064 64.703995 68.703941 73.119888 77.535828 81.951775 85.527733 89.943672 93.42923">95%Confdence</tspan><tspan
         id="tspan204"
         y="0"
         x="55.501705 57.74968 62.165623 64.82959 68.405548 71.981499 75.981453 79.9814 118.54412 123.87206 127.872 130.53596 134.53592 139.12386 144.86778 148.86774 152.4437 156.85963 162.25478 165.33473 168.91069 172.91064 176.48659 180.06255">intervalTotalwordsscored</tspan><tspan
         id="tspan206"
         y="-8.9574881"
         x="208.3454 212.76134 217.17729 221.17723 224.75319 230.68272 234.68266 239.7538 242.83377 246.40971 250.40967 253.98563 257.56158">Shareofscored</tspan><tspan
         id="tspan208"
         y="0"
         x="216.90608 222.65002 226.64996 230.22592 234.64186 240.0938 242.75777 250.75766">words(%)</tspan></text>
<text
       id="text210"
       style="font-variant:normal;font-weight:normal;font-size:7.99989986px;font-family:AdvPS6F00;-inkscape-font-specification:AdvPS6F00;writing-mode:lr-tb;fill:#231f20;fill-opacity:1;fill-rule:nonzero;stroke:none"
       transform="matrix(1,0,0,-1,48.189508,525.48623)"><tspan
         id="tspan212"
         y="0"
         x="0 5.3279333 11.071861">CDU</tspan></text>
<text
       id="text214"
       style="font-variant:normal;font-weight:normal;font-size:7.99989986px;font-family:AdvP4C4E59;-inkscape-font-specification:AdvP4C4E59;writing-mode:lr-tb;fill:#231f20;fill-opacity:1;fill-rule:nonzero;stroke:none"
       transform="matrix(1,0,0,-1,64.970899,525.48623)"><tspan
         id="tspan216"
         y="0"
         x="0">/</tspan></text>
<text
       id="text218"
       style="font-variant:normal;font-weight:normal;font-size:7.99989986px;font-family:AdvPS6F00;-inkscape-font-specification:AdvPS6F00;writing-mode:lr-tb;fill:#231f20;fill-opacity:1;fill-rule:nonzero;stroke:none"
       transform="matrix(1,0,0,-1,68.939649,525.48623)"><tspan
         id="tspan220"
         y="0"
         x="0 5.3279333 9.7438784 17.858177 20.522144 22.770115 26.770065 30.770016 34.769966 66.500771 70.500717 72.500694 113.78258 116.44654 120.4465 122.44647 126.44642 131.07356 135.07352 137.07349 141.07344 200.4655 204.46544 208.46539 210.46536 214.46532 218.46527 288.1124 292.11234 296.1123 298.11227">CSU(long)7.7[6.5;9.0]13,16182.2</tspan><tspan
         id="tspan222"
         y="9.014287"
         x="-20.74934 -15.421408 -9.6774788">CDU</tspan></text>
<text
       id="text224"
       style="font-variant:normal;font-weight:normal;font-size:7.99989986px;font-family:AdvP4C4E59;-inkscape-font-specification:AdvP4C4E59;writing-mode:lr-tb;fill:#231f20;fill-opacity:1;fill-rule:nonzero;stroke:none"
       transform="matrix(1,0,0,-1,64.971699,516.47194)"><tspan
         id="tspan226"
         y="0"
         x="0">/</tspan></text>
<text
       id="text228"
       style="font-variant:normal;font-weight:normal;font-size:7.99989986px;font-family:AdvPS6F00;-inkscape-font-specification:AdvPS6F00;writing-mode:lr-tb;fill:#231f20;fill-opacity:1;fill-rule:nonzero;stroke:none"
       transform="matrix(1,0,0,-1,68.940449,516.47194)"><tspan
         id="tspan230"
         y="0"
         x="0 5.3279333 9.7438784 17.858177 20.522144 23.602104 27.602055 31.602005 34.265972 36.513943 62.532017 66.531967 70.531921 72.531891 113.78258 116.44654 120.4465 122.44647 126.44642 131.07356 135.07352 139.07346 141.07344 145.07338 210.44296 214.44292 218.44287 288.1116 292.11154 296.11151 298.11148">CSU(short)13.8[8.4;19.1]55989.4</tspan><tspan
         id="tspan232"
         y="8.9574881"
         x="-20.74934 -16.333395 -11.917451 66.500771 70.500717 72.500694 113.78258 116.44654 120.4465 122.44647 126.44642 131.07356 135.07352 139.07346 141.07344 145.07338 200.4655 204.46544 208.46539 210.46536 214.46532 218.46527 288.1124 292.11234 296.1123 298.11227">SPD9.2[8.1;10.3]17,14073.4</tspan><tspan
         id="tspan234"
         y="17.971775"
         x="-20.74934 -16.333395 -10.589468 62.532017 66.531967 70.531921 72.531891 109.81383 112.47779 116.47775 120.47769 122.47767 126.47762 131.07356 135.07352 139.07346 141.07344 145.07338 204.43425 208.43419 210.43417 214.43411 218.43407 288.1124 292.11234 296.1123 298.11227">FDP18.3[16.2;20.4]4,96472.0</tspan></text>
<text
       id="text236"
       style="font-variant:normal;font-weight:normal;font-size:7.99989986px;font-family:AdvPS6F0B;-inkscape-font-specification:AdvPS6F0B;writing-mode:lr-tb;fill:#231f20;fill-opacity:1;fill-rule:nonzero;stroke:none"
       transform="matrix(1,0,0,-1,48.191108,480.47159)"><tspan
         id="tspan238"
         y="0"
         x="0 3.9999499 7.9998999 11.99985 15.079811 18.655767">Source</tspan></text>
<text
       id="text240"
       style="font-variant:normal;font-weight:normal;font-size:7.99989986px;font-family:AdvPS6F00;-inkscape-font-specification:AdvPS6F00;writing-mode:lr-tb;fill:#231f20;fill-opacity:1;fill-rule:nonzero;stroke:none"
       transform="matrix(1,0,0,-1,70.358031,480.47159)"><tspan
         id="tspan242"
         y="0"
         x="0 4.0255499 9.7694778 15.513406 21.260534 24.836489 28.412445 30.660418 34.236374 38.23632 40.484295 44.060249 46.30822 48.556194 52.556145 56.556091 59.636055 63.610405 66.274368 69.850327 72.51429 76.090248 78.754219 82.33017 86.330124 89.906075 95.245209 97.493179 101.06914 105.06908 107.31705 112.1394 115.71535 118.37932 123.70486 125.95283 129.95277 135.3271 137.99107 141.56703 145.56699 149.14293 151.8069 155.38286 159.3652 162.94116 165.18913 168.76509 172.34105 174.58902 176.83699 180.83694 186.57767 192.82559 196.40155 200.40149 202.64946 205.31343 208.88939 211.96935 214.13013 218.13007 223.03081 227.03076 231.42111 236.74904 242.49297">:Owncalculations;referencetextsarethefederalelectionmanifestosofCDU</tspan></text>
<text
       id="text244"
       style="font-variant:normal;font-weight:normal;font-size:7.99989986px;font-family:AdvP4C4E59;-inkscape-font-specification:AdvP4C4E59;writing-mode:lr-tb;fill:#231f20;fill-opacity:1;fill-rule:nonzero;stroke:none"
       transform="matrix(1,0,0,-1,318.55813,480.47159)"><tspan
         id="tspan246"
         y="0"
         x="0">/</tspan></text>
<text
       id="text248"
       style="font-variant:normal;font-weight:normal;font-size:7.99989986px;font-family:AdvPS6F00;-inkscape-font-specification:AdvPS6F00;writing-mode:lr-tb;fill:#231f20;fill-opacity:1;fill-rule:nonzero;stroke:none"
       transform="matrix(1,0,0,-1,322.58368,480.47159)"><tspan
         id="tspan250"
         y="0"
         x="0 5.3279333 9.7438784 15.487806 19.21896 23.634905 28.05085 35.546757 39.122711 43.122662 48.869789 53.285732 59.029663 65.197586 67.445557">CSU,SPDandFDPin</tspan><tspan
         id="tspan252"
         y="8.9574881"
         x="-274.39258 -270.39261 -266.39267 -262.39273 -258.39276 -253.81282 -251.14886 -247.57291 -244.90894 -241.33298 -238.66902 -235.09306 -231.09311 -227.51715 -221.55482 -218.47487 -214.89891 -210.89896 -208.235 -204.65904 -199.21751 -195.64156 -192.97758 -187.02887 -184.78088 -180.78094 -174.84021 -169.92827 -166.35233 -162.35237 -158.77641 -153.75008 -150.17412 -146.17418 -139.80385 -134.05992 -130.05997 -126.06002 -121.43528 -117.85933 -114.77937 -112.53139 -110.28342 -104.0355 -100.45954 -98.211571 -94.63562 -89.233284 -85.233337 -80.162201 -74.418266 -70.842316 -68.178345 -61.930428 -58.354469 -52.042549 -48.042599 -44.466644 -41.802677 -39.554707 -37.306732 -33.730778 -28.288446 -24.288496 -17.913376 -15.665404 -11.665454 -5.7247286 -3.0607617 -0.81278986 3.1871603 6.7631154 9.4270821 13.003037 16.578993 19.658955 25.626879 27.874851 31.450808 35.450756 39.026711 44.449043 48.448994 51.528957 55.900902 59.476856 63.476807">1990;referencescoresaretheLaverandHuntestimatesofGermanpartiesonthe‘increasetaxesvs.cut</tspan><tspan
         id="tspan254"
         y="17.971775"
         x="-274.39258 -271.31262 -267.31265 -263.73669 -259.73676 -255.7368 -253.48883 -249.48888 -245.59213 -240.48979 -236.48984 -234.24187 -227.99396 -224.418 -220.41805 -217.33809 -215.09012 -211.09016 -207.21101">spending’dimension.</tspan><tspan
         y="-nan"
         x="0"
         id="tspan256" /></text>
</g></svg>