<?xml version="1.0" encoding="UTF-8" standalone="no"?>
<svg
   xmlns:dc="http://purl.org/dc/elements/1.1/"
   xmlns:cc="http://creativecommons.org/ns#"
   xmlns:rdf="http://www.w3.org/1999/02/22-rdf-syntax-ns#"
   xmlns:svg="http://www.w3.org/2000/svg"
   xmlns="http://www.w3.org/2000/svg"
   viewBox="0 0 453.2482 285.37299"
   height="285.37299"
   width="453.2482"
   xml:space="preserve"
   version="1.1"
   id="svg2"><metadata
     id="metadata8"><rdf:RDF><cc:Work
         rdf:about=""><dc:format>image/svg+xml</dc:format><dc:type
           rdf:resource="http://purl.org/dc/dcmitype/StillImage" /><dc:title></dc:title></cc:Work></rdf:RDF></metadata><defs
     id="defs6" /><g
     transform="matrix(1.25,0,0,-1.25,-50.23625,336.1003)"
     id="g10"><path
       id="path96"
       style="fill:#231f20;fill-opacity:1;fill-rule:nonzero;stroke:none"
       d="m 48.189,231.704 345.827,0 0,-0.51 -345.827,0 0,0.51 z" /><path
       id="path98"
       style="fill:#231f20;fill-opacity:1;fill-rule:nonzero;stroke:none"
       d="m 48.189,105.676 345.827,0 0,-0.51 -345.827,0 0,0.51 z" /><path
       id="path100"
       style="fill:#231f20;fill-opacity:1;fill-rule:nonzero;stroke:none"
       d="m 122.173,213.676 131.414,0 0,-0.51 -131.414,0 0,0.51 z" /><path
       id="path102"
       style="fill:#231f20;fill-opacity:1;fill-rule:nonzero;stroke:none"
       d="m 262.602,213.676 131.414,0 0,-0.51 -131.414,0 0,0.51 z" /><path
       id="path104"
       style="fill:#231f20;fill-opacity:1;fill-rule:nonzero;stroke:none"
       d="m 48.189,159.704 345.827,0 0,-0.51 -345.827,0 0,0.51 z" /><text
       id="text106"
       style="font-variant:normal;font-weight:normal;font-size:6.99989986px;font-family:AdvPS6F00;-inkscape-font-specification:AdvPS6F00;writing-mode:lr-tb;fill:#231f20;fill-opacity:1;fill-rule:nonzero;stroke:none"
       transform="matrix(1,0,0,-1,205.1149,255.685)"><tspan
         id="tspan108"
         y="0"
         x="0 5.0560279 10.840045 16.260067 21.316095 28.459494">TABLE2</tspan><tspan
         id="tspan110"
         y="9.0144711"
         x="-143.26346 -138.20952 -133.58958 -128.53566 -125.44871 -118.49781 -112.71589 -107.61366 -104.5519 -98.769989 -90.889503 -86.269569 -80.487648 -75.433723 -72.315269 -66.897346 -59.016857 -54.396923 -48.615005 -43.995071 -40.908115 -35.854187 -32.735733 -26.953815 -21.171898 -14.482093 -8.6427765 -3.5972486 1.0226854 5.6426196 10.696548 18.577034 23.196968 28.250896 34.032814 39.086742 46.230141 50.878773 56.66069 62.078613 67.132538 70.219498 75.321724 82.011528 85.098488 92.978973 97.234909 101.49085 105.74679 112.0964 117.87832 123.66023 131.54073 135.79666 140.0526 144.30853 150.71484 156.49677 164.37726 170.15916">ESTIMATINGPOLICYPOSITIONSHESSENSTATEPARTIESIN1991AND2003ONAN</tspan><tspan
         id="tspan112"
         y="18.028942"
         x="-125.6888 -120.63277 -115.21275 -109.42873 -103.64472 -97.860703 -90.9077 -87.818642 -80.278351 -75.656319 -69.872299 -64.816277 -61.727219 -56.307194 -48.426708 -42.642693 -39.553635 -32.600636 -27.544607 -21.76059 -17.138556 -14.0495 -8.2654819 -0.38499451 7.0418992 10.130956 15.186983 23.067471 28.856388 34.695705 41.839104 47.619621 50.705177 55.323711 59.942245 65.044472 70.430191 75.482719 81.322037 88.465439 93.90786 98.960388 103.57892 108.63145 114.04797 119.1005 124.88102 130.29753 137.44093 142.54317 147.58868 153.3692">ECONOMICPOLICYDIMENSIONWITHONEDIFFERENTREFERENCETEXT</tspan></text>
<text
       id="text114"
       style="font-variant:normal;font-weight:normal;font-size:7.99989986px;font-family:AdvPS6F01;-inkscape-font-specification:AdvPS6F01;writing-mode:lr-tb;fill:#231f20;fill-opacity:1;fill-rule:nonzero;stroke:none"
       transform="matrix(1,0,0,-1,179.9433,219.685)"><tspan
         id="tspan116"
         y="0"
         x="0 3.9999499 7.9998999 11.99985 140.37105 144.371 148.37094 152.3709">19912003</tspan><tspan
         id="tspan118"
         y="18.028576"
         x="-50.343372 -46.343422 -42.343472 -38.343521 -31.9748 -26.646868 -24.398895 -20.822939 -17.246984 -14.583017 -12.335046 -8.3350954">1990Election</tspan><tspan
         id="tspan120"
         y="26.986063"
         x="-57.260086 -49.684177 -45.684231 -41.268284 -39.020313 -36.356346 -32.780392 -29.700428 -27.036463 -20.750141 -16.750191">Manifestoof</tspan></text>
<text
       id="text122"
       style="font-variant:normal;font-weight:normal;font-size:7.99989986px;font-family:AdvPS6F09;-inkscape-font-specification:AdvPS6F09;writing-mode:lr-tb;fill:#231f20;fill-opacity:1;fill-rule:nonzero;stroke:none"
       transform="matrix(1,0,0,-1,168.26425,192.69894)"><tspan
         id="tspan124"
         y="0"
         x="0 5.3279333 9.3278837 12.407845">East</tspan></text>
<text
       id="text126"
       style="font-variant:normal;font-weight:normal;font-size:7.99989986px;font-family:AdvPS6F01;-inkscape-font-specification:AdvPS6F01;writing-mode:lr-tb;fill:#231f20;fill-opacity:1;fill-rule:nonzero;stroke:none"
       transform="matrix(1,0,0,-1,125.17758,183.68465)"><tspan
         id="tspan128"
         y="0"
         x="0 6.2479219 9.8238773 13.399833 20.063749 24.0637 30.784414 37.032337 40.608292 44.184246 47.760204 52.176147">GermanGreens</tspan><tspan
         id="tspan130"
         y="9.014287"
         x="-2.0975738 2.3183711 5.3983326 8.974288 15.760603 19.760553 25.228485 28.80444 32.380394 35.044361 38.620316 42.196274 45.772228 50.188171 53.76413">usedasreference</tspan><tspan
         id="tspan132"
         y="18.028576"
         x="21.146135 23.810102 27.386057 31.386007">text</tspan><tspan
         id="tspan134"
         y="-17.970976"
         x="74.663864 78.663818 82.663765 86.663719 92.975639 98.303574 100.55154 104.12749 107.70345 110.36742 112.61539 116.61534">1990Election</tspan><tspan
         id="tspan136"
         y="-9.0134869"
         x="67.180763 74.756668 78.756615 83.172562 85.420532 88.084496 91.660454 94.740417 97.404381 103.5779 107.57786">Manifestoof</tspan></text>
<text
       id="text138"
       style="font-variant:normal;font-weight:normal;font-size:7.99989986px;font-family:AdvPS6F09;-inkscape-font-specification:AdvPS6F09;writing-mode:lr-tb;fill:#231f20;fill-opacity:1;fill-rule:nonzero;stroke:none"
       transform="matrix(1,0,0,-1,237.65538,192.69814)"><tspan
         id="tspan140"
         y="0"
         x="0 7.0799117 10.655867 13.735828">West</tspan></text>
<text
       id="text142"
       style="font-variant:normal;font-weight:normal;font-size:7.99989986px;font-family:AdvPS6F01;-inkscape-font-specification:AdvPS6F01;writing-mode:lr-tb;fill:#231f20;fill-opacity:1;fill-rule:nonzero;stroke:none"
       transform="matrix(1,0,0,-1,195.36231,183.68385)"><tspan
         id="tspan144"
         y="0"
         x="0 6.2479219 9.8238773 13.399833 20.063749 24.0637 30.841215 37.089138 40.665092 44.241047 47.817001 52.232948">GermanGreens</tspan><tspan
         id="tspan146"
         y="9.014287"
         x="-2.0407746 2.3751702 5.455132 9.0310869 15.760603 19.760553 25.228485 28.80444 32.380394 35.044361 38.620316 42.196274 45.772228 50.188171 53.76413">usedasreference</tspan><tspan
         id="tspan148"
         y="18.028576"
         x="21.202934 23.866901 27.442858 31.442806">text</tspan><tspan
         id="tspan150"
         y="-17.970976"
         x="74.663864 78.663818 82.663765 86.663719 93.03244 98.360367 100.60835 104.1843 107.76025 110.42422 112.67219 116.67214">1990Election</tspan><tspan
         id="tspan152"
         y="-9.0134869"
         x="67.747154 75.323059 79.323006 83.738953 85.986923 88.650894 92.125252 95.205208 97.869179 104.2571 108.25705">Manifestoof</tspan></text>
<text
       id="text154"
       style="font-variant:normal;font-weight:normal;font-size:7.99989986px;font-family:AdvPS6F09;-inkscape-font-specification:AdvPS6F09;writing-mode:lr-tb;fill:#231f20;fill-opacity:1;fill-rule:nonzero;stroke:none"
       transform="matrix(1,0,0,-1,308.69049,192.69734)"><tspan
         id="tspan156"
         y="0"
         x="0 5.3279333 9.3278837 12.407845">East</tspan></text>
<text
       id="text158"
       style="font-variant:normal;font-weight:normal;font-size:7.99989986px;font-family:AdvPS6F01;-inkscape-font-specification:AdvPS6F01;writing-mode:lr-tb;fill:#231f20;fill-opacity:1;fill-rule:nonzero;stroke:none"
       transform="matrix(1,0,0,-1,265.60383,183.68305)"><tspan
         id="tspan160"
         y="0"
         x="0 6.2479219 9.8238773 13.399833 20.063749 24.0637 30.784414 37.032337 40.608292 44.184246 47.760204 52.176147">GermanGreens</tspan><tspan
         id="tspan162"
         y="9.014287"
         x="-2.0975738 2.3183711 5.3983326 8.974288 15.760603 19.760553 25.228485 28.80444 32.380394 35.044361 38.620316 42.196274 45.772228 50.188171 53.688129">usedasreference</tspan><tspan
         id="tspan164"
         y="18.028576"
         x="21.146135 23.810102 27.386057 31.386007">text</tspan><tspan
         id="tspan166"
         y="-17.970976"
         x="74.607071 78.607018 82.606964 86.606918 92.975639 98.303574 100.55154 104.12749 107.70345 110.36742 112.61539 116.61534">1990Election</tspan><tspan
         id="tspan168"
         y="-9.0134869"
         x="67.179962 74.755867 78.755814 83.171761 85.419731 88.083702 91.659653 94.739616 97.40358 103.5771 107.57706">Manifestoof</tspan></text>
<text
       id="text170"
       style="font-variant:normal;font-weight:normal;font-size:7.99989986px;font-family:AdvPS6F09;-inkscape-font-specification:AdvPS6F09;writing-mode:lr-tb;fill:#231f20;fill-opacity:1;fill-rule:nonzero;stroke:none"
       transform="matrix(1,0,0,-1,378.08162,192.69654)"><tspan
         id="tspan172"
         y="0"
         x="0 7.0799117 10.655867 13.735828">West</tspan></text>
<text
       id="text174"
       style="font-variant:normal;font-weight:normal;font-size:7.99989986px;font-family:AdvPS6F01;-inkscape-font-specification:AdvPS6F01;writing-mode:lr-tb;fill:#231f20;fill-opacity:1;fill-rule:nonzero;stroke:none"
       transform="matrix(1,0,0,-1,335.78855,183.68225)"><tspan
         id="tspan176"
         y="0"
         x="0 6.2479219 9.8238773 13.399833 20.063749 24.0637 30.784414 37.032337 40.608292 44.184246 47.760204 52.176147">GermanGreens</tspan><tspan
         id="tspan178"
         y="9.014287"
         x="-2.0975738 2.3183711 5.3983326 8.974288 15.760603 19.760553 25.228485 28.80444 32.380394 35.044361 38.620316 42.196274 45.772228 50.188171 53.76413">usedasreference</tspan><tspan
         id="tspan180"
         y="18.028576"
         x="21.146135 23.810102 27.386057 31.386007">text</tspan></text>
<text
       id="text182"
       style="font-variant:normal;font-weight:normal;font-size:7.99989986px;font-family:AdvPS6F00;-inkscape-font-specification:AdvPS6F00;writing-mode:lr-tb;fill:#231f20;fill-opacity:1;fill-rule:nonzero;stroke:none"
       transform="matrix(1,0,0,-1,48.186547,147.6819)"><tspan
         id="tspan184"
         y="0"
         x="0 5.3279333 11.071861 77.271835 81.271782 85.271736 87.271706 93.599632 96.263596 100.26355 104.2635 106.26347 110.26342 114.85937 118.85931 122.85926 124.85924 128.85919 147.45735 151.45731 155.45726 157.45723 163.84195 166.50592 170.50587 174.50581 176.5058 180.50574 185.10168 189.10164 193.10159 195.10156 199.10152 217.69968 221.69963 225.69958 227.69955 234.02748 236.69144 240.69139 244.69135 246.69131 250.69127 255.28722 259.28717 263.28711 265.28708 269.28705 287.88519 291.88516 295.8851 297.88507 304.26981 306.93378 310.93372 314.93365 316.93362 320.93359 325.52954 329.52948 333.52942 335.52942 339.52936">CDU15.2[14.4;16.0]13.9[13.1;14.7]16.5[16.1;16.9]16.4[16.0;16.7]</tspan><tspan
         id="tspan186"
         y="9.014287"
         x="0 4.4159446 8.8318892 77.271835 81.271782 85.271736 87.271706 93.599632 96.263596 100.26355 104.2635 106.26347 110.26342 114.85937 118.85931 122.85926 124.85924 128.85919 147.45735 151.45731 155.45726 157.45723 163.84195 166.50592 170.50587 174.50581 176.5058 180.50574 185.10168 189.10164 193.10159 195.10156 199.10152 217.69968 221.69963 225.69958 227.69955 234.02748 236.69144 240.69139 244.69135 246.69131 250.69127 255.28722 259.28717 263.28711 265.28708 269.28705 287.88519 291.88516 295.8851 297.88507 304.26981 306.93378 310.93372 314.93365 316.93362 320.93359 325.52954 329.52948 333.52942 335.52942 339.52936">SPD13.0[12.5;13.5]12.0[11.5;12.5]13.4[13.0;13.7]13.4[13.1;13.8]</tspan><tspan
         id="tspan188"
         y="18.028576"
         x="0 4.4159446 10.159873 77.271835 81.271782 85.271736 87.271706 93.599632 96.263596 100.26355 104.2635 106.26347 110.26342 114.85937 118.85931 122.85926 124.85924 128.85919 147.45735 151.45731 155.45726 157.45723 163.84195 166.50592 170.50587 174.50581 176.5058 180.50574 185.10168 189.10164 193.10159 195.10156 199.10152 217.69968 221.69963 225.69958 227.69955 234.02748 236.69144 240.69139 244.69135 246.69131 250.69127 255.28722 259.28717 263.28711 265.28708 269.28705 287.88519 291.88516 295.8851 297.88507 304.26981 306.93378 310.93372 314.93365 316.93362 320.93359 325.52954 329.52948 333.52942 335.52942 339.52936">FDP17.2[16.7;17.8]16.8[16.3;17.4]19.1[18.8;19.5]19.0[18.6;19.3]</tspan><tspan
         id="tspan190"
         y="26.986063"
         x="0 5.3279333">Bu</tspan><tspan
         id="tspan192"
         y="26.929262"
         x="6.0095248">¨</tspan><tspan
         id="tspan194"
         y="26.986063"
         x="9.2974834 13.297434 17.297384 21.297335 23.545305 28.970037 32.96999">ndnis90</tspan></text>
<text
       id="text196"
       style="font-variant:normal;font-weight:normal;font-size:7.99989986px;font-family:AdvP4C4E59;-inkscape-font-specification:AdvP4C4E59;writing-mode:lr-tb;fill:#231f20;fill-opacity:1;fill-rule:nonzero;stroke:none"
       transform="matrix(1,0,0,-1,85.150085,120.69584)"><tspan
         id="tspan198"
         y="0"
         x="0">/</tspan></text>
<text
       id="text200"
       style="font-variant:normal;font-weight:normal;font-size:7.99989986px;font-family:AdvPS6F00;-inkscape-font-specification:AdvPS6F00;writing-mode:lr-tb;fill:#231f20;fill-opacity:1;fill-rule:nonzero;stroke:none"
       transform="matrix(1,0,0,-1,89.118835,120.69584)"><tspan
         id="tspan202"
         y="0"
         x="0 5.7439284 8.4078951 11.98385 15.559806 19.559755">Greens</tspan></text>
<text
       id="text204"
       style="font-variant:normal;font-weight:normal;font-size:7.99989986px;font-family:AdvPS6F01;-inkscape-font-specification:AdvPS6F01;writing-mode:lr-tb;fill:#231f20;fill-opacity:1;fill-rule:nonzero;stroke:none"
       transform="matrix(1,0,0,-1,125.45918,120.69584)"><tspan
         id="tspan206"
         y="0"
         x="0 3.9999499 7.9998999 9.9998751 16.327795 18.991762 22.991713 26.991663 28.991638 32.991589 38.041126 42.041073 46.041023 48.041 52.040951 70.186325 74.186272 78.186226 80.186195 86.570915 89.234886 93.234833 95.23481 99.234756 104.2595 108.25945 112.2594 114.25937 118.25932 140.42944 144.4294 148.42935 150.42932 156.75725 159.4212 163.42116 167.42111 169.42108 173.42104 178.47057 182.47052 186.47047 188.47044 192.4704 210.61577 214.61572 218.61566 220.61565 227.00037 229.66432 233.66428 237.66423 239.6642 243.66415 248.65689 252.65685 256.6568 258.65677 262.65671">12.1[11.8;12.4]10.1[9.7;10.4]13.3[12.9;13.7]12.8[12.4;13.1]</tspan></text>
<text
       id="text208"
       style="font-variant:normal;font-weight:normal;font-size:7.99989986px;font-family:AdvPS6F00;-inkscape-font-specification:AdvPS6F00;writing-mode:lr-tb;fill:#231f20;fill-opacity:1;fill-rule:nonzero;stroke:none"
       transform="matrix(1,0,0,-1,48.187347,111.68155)"><tspan
         id="tspan210"
         y="0"
         x="0 5.3279333 9.3278837 12.903839 15.151811 17.399782 19.647755 21.895727 25.895676 31.578005 35.153961 39.153912 41.817879 45.393833 48.969788 55.217709 58.793667 62.793613">Coalitionagreement</tspan></text>
<text
       id="text212"
       style="font-variant:normal;font-weight:normal;font-size:7.99989986px;font-family:AdvPS6F01;-inkscape-font-specification:AdvPS6F01;writing-mode:lr-tb;fill:#231f20;fill-opacity:1;fill-rule:nonzero;stroke:none"
       transform="matrix(1,0,0,-1,125.45918,111.68155)"><tspan
         id="tspan214"
         y="0"
         x="0 3.9999499 7.9998999 9.9998751 16.327795 18.991762 22.991713 26.991663 28.991638 32.991589 38.041126 42.041073 46.041023 48.041 52.040951 70.186325 74.186272 78.186226 80.186195 86.570915 89.234886 93.234833 97.234787 99.234756 103.23471 108.22745 112.22739 116.22735 118.22733 122.22727">14.8[14.4;15.2]13.9[13.5;14.3]</tspan></text>
<text
       id="text216"
       style="font-variant:normal;font-weight:normal;font-size:7.99989986px;font-family:AdvPS6F00;-inkscape-font-specification:AdvPS6F00;writing-mode:lr-tb;fill:#231f20;fill-opacity:1;fill-rule:nonzero;stroke:none"
       transform="matrix(1,0,0,-1,265.88703,111.68155)"><tspan
         id="tspan218"
         y="0"
         x="0 3.9999499 7.9998999 9.9998751 16.327795 18.991762 22.991713 26.991663 28.991638 32.991589 37.587532 41.587479 45.587429 47.587406 51.587357 70.185524 74.185471 78.185425 80.185394 86.570114 89.234085 93.234032 97.233986 99.233963 103.23391 107.82985 111.8298 115.82975 117.82973 121.82967">16.1[15.7;16.5]16.2[15.8;16.6]</tspan></text>
<text
       id="text220"
       style="font-variant:normal;font-weight:normal;font-size:7.99989986px;font-family:AdvPS6F0B;-inkscape-font-specification:AdvPS6F0B;writing-mode:lr-tb;fill:#231f20;fill-opacity:1;fill-rule:nonzero;stroke:none"
       transform="matrix(1,0,0,-1,48.187347,93.652975)"><tspan
         id="tspan222"
         y="0"
         x="0 5.3279333 9.3278837 11.575855">Note</tspan></text>
<text
       id="text224"
       style="font-variant:normal;font-weight:normal;font-size:7.99989986px;font-family:AdvPS6F00;-inkscape-font-specification:AdvPS6F00;writing-mode:lr-tb;fill:#231f20;fill-opacity:1;fill-rule:nonzero;stroke:none"
       transform="matrix(1,0,0,-1,63.323958,93.652975)"><tspan
         id="tspan226"
         y="0"
         x="0 4.6487417 9.5606804 12.640642 14.888614 17.136585 23.384508 26.960463 29.208435 32.784389 38.153923 40.401894 44.401844 47.977798 52.610542 56.186497 58.850464 64.799187 67.87915 70.127121 74.127075 78.127022 80.374992 84.790939 88.366898 91.942848 95.942802 98.190773 100.43874 106.75227 110.75221 113.00019 115.66415 118.32812 121.90408 124.56805 128.144 132.14395 136.74309 140.31905 142.98302 148.93173 152.0117 156.01164 160.0116 165.75552 172.11945 174.36742 180.73694 184.73689 188.73685 190.98482 197.34793 199.5959 203.17186 207.17181 209.41978">:Estimatesthataresignifcantlydifferentareshowninboldtext.</tspan></text>
<text
       id="text228"
       style="font-variant:normal;font-weight:normal;font-size:7.99989986px;font-family:AdvPS6F0B;-inkscape-font-specification:AdvPS6F0B;writing-mode:lr-tb;fill:#231f20;fill-opacity:1;fill-rule:nonzero;stroke:none"
       transform="matrix(1,0,0,-1,48.187347,84.695487)"><tspan
         id="tspan230"
         y="0"
         x="0 3.9999499 7.9998999 11.99985 15.079811 18.655767 22.231722">Sources</tspan></text>
<text
       id="text232"
       style="font-variant:normal;font-weight:normal;font-size:7.99989986px;font-family:AdvPS6F00;-inkscape-font-specification:AdvPS6F00;writing-mode:lr-tb;fill:#231f20;fill-opacity:1;fill-rule:nonzero;stroke:none"
       transform="matrix(1,0,0,-1,73.415832,84.695487)"><tspan
         id="tspan234"
         y="0"
         x="0 4.6487417 9.5606804 13.946226 19.274158 21.938126">:T.Bra</tspan><tspan
         id="tspan236"
         y="-0.17039786"
         x="22.450119">¨</tspan><tspan
         id="tspan238"
         y="0"
         x="25.511681 29.511631 33.511581 35.759552 39.759502 43.759453 47.335407 52.327347 55.903301 59.903252 66.273575 73.353485 77.725426 83.46936 87.045311 91.045265 95.045212 98.125175 102.50032 105.16428 110.90821 114.48417 119.5081 124.42004 126.66801 130.66797 135.08391 139.08386 142.16382 147.57095 151.57091 155.57086 161.91397 167.6579 171.65785 175.23381 177.48178 179.72975 181.97772 184.22569 188.22565 192.2256 195.30556 198.88152 202.78946 205.86943 208.94939 212.52534 216.5253 220.10124 224.1012 228.47154 232.4715 235.13547 239.13541 243.13536 245.79933 249.37529 255.5144 261.76233 265.33829 267.58624 269.83423 272.91418 276.49014 280.49008 284.06604">uningerandM.Debus,‘DerEinfussvonKoalitionsaussagen,programmatischen</tspan><tspan
         id="tspan240"
         y="9.014287"
         x="-25.228485 -20.81254 -18.564568 -14.988612 -10.988663 -6.9887128 -2.9887626 1.0111873 5.0111375 8.9006891 11.148661 14.724616 21.089336 25.089287 29.089237 35.489155 39.489105 43.065063 48.0746 53.402531 57.402481 61.402431 65.402382 68.97834 72.058296 76.05825 80.058197 82.306168 84.554146 86.802116 88.950089 95.356407 98.932365 102.93231 107.94185 111.9418 114.18977 120.18729 125.51523 129.09119 133.09114 135.33911 138.91507 141.57903 145.57898 149.57893 153.46608 156.54604 160.54599 162.79396 165.04193 169.04189 173.04184 177.04179 183.4001 185.64809 192.01759 196.01755 199.59351 205.96382 209.96378 213.53973 217.53969 219.78766 222.86761 226.44357 230.44351 234.01947 240.3194 245.23134">StandpunktenundderBundespolitikaufdieRegierungsbildungindendeutschenLa</tspan><tspan
         id="tspan242"
         y="8.8438892"
         x="245.76253">¨</tspan><tspan
         id="tspan244"
         y="9.014287"
         x="248.8241 252.82404 256.82397 260.39993 263.0639 267.06387 269.72781">ndern’,</tspan></text>
<text
       id="text246"
       style="font-variant:normal;font-weight:normal;font-size:7.99989986px;font-family:AdvPS6F0B;-inkscape-font-specification:AdvPS6F0B;writing-mode:lr-tb;fill:#231f20;fill-opacity:1;fill-rule:nonzero;stroke:none"
       transform="matrix(1,0,0,-1,347.46841,75.6812)"><tspan
         id="tspan248"
         y="0"
         x="0 4.9119387 8.9118891 11.159861 13.407832 15.655805 17.903776 20.983738 24.559692 28.559643">Politische</tspan><tspan
         id="tspan250"
         y="9.014287"
         x="-299.28027 -294.36832 -292.12036 -288.5444 -285.46442 -283.21646 -279.6405 -277.39255 -275.14456 -271.14462 -267.14465 -264.0647 -260.48874 -257.49759 -254.41762 -250.84166 -246.84172 -243.76175 -241.51378 -239.26581">Vierteljahresschrift</tspan></text>
<text
       id="text252"
       style="font-variant:normal;font-weight:normal;font-size:7.99989986px;font-family:AdvPS6F00;-inkscape-font-specification:AdvPS6F00;writing-mode:lr-tb;fill:#231f20;fill-opacity:1;fill-rule:nonzero;stroke:none"
       transform="matrix(1,0,0,-1,112.81774,66.666913)"><tspan
         id="tspan254"
         y="0"
         x="0 3.9999499">49</tspan></text>
<text
       id="text256"
       style="font-variant:normal;font-weight:normal;font-size:7.99989986px;font-family:AdvP4C4E59;-inkscape-font-specification:AdvP4C4E59;writing-mode:lr-tb;fill:#231f20;fill-opacity:1;fill-rule:nonzero;stroke:none"
       transform="matrix(1,0,0,-1,120.75444,66.666913)"><tspan
         id="tspan258"
         y="0"
         x="0">/</tspan></text>
<text
       id="text260"
       style="font-variant:normal;font-weight:normal;font-size:7.99989986px;font-family:AdvPS6F00;-inkscape-font-specification:AdvPS6F00;writing-mode:lr-tb;fill:#231f20;fill-opacity:1;fill-rule:nonzero;stroke:none"
       transform="matrix(1,0,0,-1,124.77999,66.666913)"><tspan
         id="tspan262"
         y="0"
         x="0 6.3495207 9.0134869 13.013437 17.013388 21.013338 25.013287 27.677254 32.031601 36.031551 40.031498 42.031475 46.031425 50.031376 54.765717 59.528057 63.528008 67.527954 72.170296 74.834267 78.410217 81.074188 84.650139 87.31411 90.89006 94.890015 98.465973 104.37229 106.62027 110.19622 114.19617 116.44415 121.89048 125.46643 128.1304 134.13593 136.3839 140.38385 146.32457 148.98854 152.5645 156.56444 160.1404 162.80437 166.38033 170.98586 174.56181 176.80978 180.38574 183.9617 186.20967 188.45764 192.4576 198.82231 205.07024 208.64619 212.64615 214.89412 217.55807 221.13403 224.1076 226.35558 230.35551 235.84344 239.8434 244.85774 250.18567 255.9296">2(2008),pp.317–19;referencetextsarethefederalelectionmanifestosofCDU</tspan></text>
<text
       id="text264"
       style="font-variant:normal;font-weight:normal;font-size:7.99989986px;font-family:AdvP4C4E59;-inkscape-font-specification:AdvP4C4E59;writing-mode:lr-tb;fill:#231f20;fill-opacity:1;fill-rule:nonzero;stroke:none"
       transform="matrix(1,0,0,-1,386.41672,66.666913)"><tspan
         id="tspan266"
         y="0"
         x="0">/</tspan></text>
<text
       id="text268"
       style="font-variant:normal;font-weight:normal;font-size:7.99989986px;font-family:AdvPS6F00;-inkscape-font-specification:AdvPS6F00;writing-mode:lr-tb;fill:#231f20;fill-opacity:1;fill-rule:nonzero;stroke:none"
       transform="matrix(1,0,0,-1,48.188147,57.652625)"><tspan
         id="tspan270"
         y="0"
         x="0 5.3279333 9.7438784 15.487806 19.162161 23.578106 27.994051 33.73798 37.360332 41.776279 47.520206 53.574532 57.150486 61.150436 66.840767 71.752701 75.328659 78.408623 82.318169 84.98214 92.558044 96.133995 99.213959 101.46193 105.78908 111.533 115.10896 117.77293 124.02085 127.5968 133.22873 138.97266 141.63663 145.21259 148.78854 152.78848 157.49323 159.7412 165.42993 169.42989 173.42982 177.42978 181.42973 185.04568 188.62164 192.6216 198.31192 202.31187 206.64542 211.97334 217.71729">CSU,SPD,FDPandEast(West)GermanGreensin1990,andofCDU</tspan></text>
<text
       id="text272"
       style="font-variant:normal;font-weight:normal;font-size:7.99989986px;font-family:AdvP4C4E59;-inkscape-font-specification:AdvP4C4E59;writing-mode:lr-tb;fill:#231f20;fill-opacity:1;fill-rule:nonzero;stroke:none"
       transform="matrix(1,0,0,-1,271.61415,57.652625)"><tspan
         id="tspan274"
         y="0"
         x="0">/</tspan></text>
<text
       id="text276"
       style="font-variant:normal;font-weight:normal;font-size:7.99989986px;font-family:AdvPS6F00;-inkscape-font-specification:AdvPS6F00;writing-mode:lr-tb;fill:#231f20;fill-opacity:1;fill-rule:nonzero;stroke:none"
       transform="matrix(1,0,0,-1,275.5829,57.652625)"><tspan
         id="tspan278"
         y="0"
         x="0 5.3279333 9.7438784 15.487806 19.162161 23.578106 27.994051 33.73798 37.360332 41.776279 47.520206 51.93615 55.615303 60.943237">CSU,SPD,FDP,Bu</tspan><tspan
         id="tspan280"
         y="-0.11359858"
         x="61.568031">¨</tspan><tspan
         id="tspan282"
         y="0"
         x="64.912788 68.912735 72.912689 76.912636 79.160614 83.904549 87.904503">ndnis90</tspan></text>
<text
       id="text284"
       style="font-variant:normal;font-weight:normal;font-size:7.99989986px;font-family:AdvP4C4E59;-inkscape-font-specification:AdvP4C4E59;writing-mode:lr-tb;fill:#231f20;fill-opacity:1;fill-rule:nonzero;stroke:none"
       transform="matrix(1,0,0,-1,367.42496,57.652625)"><tspan
         id="tspan286"
         y="0"
         x="0">/</tspan></text>
<text
       id="text288"
       style="font-variant:normal;font-weight:normal;font-size:7.99989986px;font-family:AdvPS6F00;-inkscape-font-specification:AdvPS6F00;writing-mode:lr-tb;fill:#231f20;fill-opacity:1;fill-rule:nonzero;stroke:none"
       transform="matrix(1,0,0,-1,371.45051,57.652625)"><tspan
         id="tspan290"
         y="0"
         x="0 5.7439284 8.4078951 11.98385 15.559806 19.559755">Greens</tspan><tspan
         id="tspan292"
         y="8.9574881"
         x="-323.26157 -319.68561 -315.68567 -309.31534 -304.89938 -299.15546 -292.36435 -290.11636 -283.74686 -279.74692 -275.74695 -271.74701 -267.74704">andPDSin2002.</tspan></text>
</g></svg>