<?xml version="1.0" encoding="UTF-8" standalone="no"?>
<svg
   xmlns:dc="http://purl.org/dc/elements/1.1/"
   xmlns:cc="http://creativecommons.org/ns#"
   xmlns:rdf="http://www.w3.org/1999/02/22-rdf-syntax-ns#"
   xmlns:svg="http://www.w3.org/2000/svg"
   xmlns="http://www.w3.org/2000/svg"
   viewBox="0 0 453.2215 185.19273"
   height="185.19273"
   width="453.2215"
   xml:space="preserve"
   version="1.1"
   id="svg2"><metadata
     id="metadata8"><rdf:RDF><cc:Work
         rdf:about=""><dc:format>image/svg+xml</dc:format><dc:type
           rdf:resource="http://purl.org/dc/dcmitype/StillImage" /><dc:title></dc:title></cc:Work></rdf:RDF></metadata><defs
     id="defs6" /><g
     transform="matrix(1.25,0,0,-1.25,-50.23625,235.61217)"
     id="g10"><path
       id="path126"
       style="fill:#231f20;fill-opacity:1;fill-rule:nonzero;stroke:none"
       d="m 48.189,151.257 345.827,0 0,-0.454 -345.827,0 0,0.454 z" /><path
       id="path128"
       style="fill:#231f20;fill-opacity:1;fill-rule:nonzero;stroke:none"
       d="m 48.189,79.257 345.827,0 0,-0.454 -345.827,0 0,0.454 z" /><path
       id="path130"
       style="fill:#231f20;fill-opacity:1;fill-rule:nonzero;stroke:none"
       d="m 48.189,133.285 345.827,0 0,-0.51 -345.827,0 0,0.51 z" /><text
       id="text132"
       style="font-variant:normal;font-weight:normal;font-size:6.99989986px;font-family:AdvPS6F00;-inkscape-font-specification:AdvPS6F00;writing-mode:lr-tb;fill:#231f20;fill-opacity:1;fill-rule:nonzero;stroke:none"
       transform="matrix(1,0,0,-1,205.1149,175.2945)"><tspan
         id="tspan134"
         y="0"
         x="0 5.0560279 10.840045 16.260067 21.316095 28.459494">TABLE3</tspan><tspan
         id="tspan136"
         y="9.0144711"
         x="-155.79257 -150.74425 -146.12991 -141.08159 -138.00023 -131.05493 -125.27861 -120.17638 -117.11462 -111.33831 -103.45782 -98.409492 -92.570175 -85.426781 -80.381248 -74.968925 -69.192612 -63.416294 -57.639977 -50.694675 -47.613319 -40.073029 -35.458694 -29.619377 -24.571049 -21.489693 -16.07737 -8.1968832 -3.5825489 2.2567677 6.8711019 10.035057 15.087584 18.17314 23.953657 29.734175 36.480679 42.261196 49.007698 54.788216 59.840744 65.257271 72.206772 77.987289 85.924469 90.543007 95.595535 101.37605 106.47828 111.8948 117.67532 124.87542 129.46735 135.24786 140.66438 145.71692 148.80247 153.855 160.5448 163.63036 171.51085 175.7654 180.01993 184.27448">ESTIMATINGTHEECONOMICPOLICYPOSITIONSOFGERMANFEDERALPARTIESIN1994</tspan><tspan
         id="tspan138"
         y="18.028942"
         x="-79.93676 -72.509865 -69.448105 -64.401176 -56.520691 -51.109772 -45.334854 -39.923931 -34.513008 -29.46608 -24.055157 -18.952929 -13.906001 -6.0255141 -0.61459124 4.4323368 9.0452709 14.147498 19.55842 24.660648 30.435566 35.846489 43.046585 48.093513 53.140442 58.915359 63.962288 70.708794 75.321724 80.732643 86.507561 95.578735 99.827675 104.07661 108.32555">WITHCORRECTEDREFERENCETEXTSFROM1990</tspan></text>
<text
       id="text140"
       style="font-variant:normal;font-weight:normal;font-size:7.99989986px;font-family:AdvPS6F01;-inkscape-font-specification:AdvPS6F01;writing-mode:lr-tb;fill:#231f20;fill-opacity:1;fill-rule:nonzero;stroke:none"
       transform="matrix(1,0,0,-1,158.9102,139.2945)"><tspan
         id="tspan142"
         y="0"
         x="0 5.7439284 9.3198833 11.98385 15.559806 19.135761 22.711716 27.127661 30.703617 36.623543 39.28751 42.863464 46.863415 49.527382 54.992111 59.408058 62.488018 66.063972 72.850288 77.266235 83.622154 88.950089 94.278023 147.62856 153.37248 157.37244 160.94839 164.52434 168.1003 171.67625 174.34023 177.91618 184.70569 188.28165 191.8576 194.52158 198.09752 201.67348 205.24944 209.66537 213.16533 219.17487 221.83882 225.41478 229.41473 232.0787">ReferencetextsusedbyLBGCorrectedreferencetexts</tspan></text>
<text
       id="text144"
       style="font-variant:normal;font-weight:normal;font-size:7.99989986px;font-family:AdvPS6F00;-inkscape-font-specification:AdvPS6F00;writing-mode:lr-tb;fill:#231f20;fill-opacity:1;fill-rule:nonzero;stroke:none"
       transform="matrix(1,0,0,-1,48.189184,121.26593)"><tspan
         id="tspan146"
         y="0"
         x="0 5.3279333 11.071861">CDU</tspan></text>
<text
       id="text148"
       style="font-variant:normal;font-weight:normal;font-size:7.99989986px;font-family:AdvP4C4E59;-inkscape-font-specification:AdvP4C4E59;writing-mode:lr-tb;fill:#231f20;fill-opacity:1;fill-rule:nonzero;stroke:none"
       transform="matrix(1,0,0,-1,64.970574,121.26593)"><tspan
         id="tspan150"
         y="0"
         x="0">/</tspan></text>
<text
       id="text152"
       style="font-variant:normal;font-weight:normal;font-size:7.99989986px;font-family:AdvPS6F00;-inkscape-font-specification:AdvPS6F00;writing-mode:lr-tb;fill:#231f20;fill-opacity:1;fill-rule:nonzero;stroke:none"
       transform="matrix(1,0,0,-1,68.939325,121.26593)"><tspan
         id="tspan154"
         y="0"
         x="0 5.3279333 9.7438784 111.11781 115.11776 119.11771 121.11768 127.44561 130.10957 134.10953 138.10947 140.10945 144.10941 148.70534 152.70529 156.70525 158.70522 162.70517 254.21042 258.21036 262.21033 264.2103 270.59503 273.25897 277.25894 281.25888 283.25885 287.25882 291.85477 295.85471 299.85464 301.85461 305.85458">CSU13.7[12.9;14.5]13.2[12.6;13.8]</tspan><tspan
         id="tspan156"
         y="9.014287"
         x="-20.74934 -16.333395 -11.917451 111.11781 115.11776 119.11771 121.11768 127.44561 130.10957 134.10953 136.1095 140.10945 144.73659 148.73654 152.7365 154.73647 158.73642 254.21042 258.21036 262.21033 264.2103 270.59503 273.25897 277.25894 281.25888 283.25885 287.25882 291.85477 295.85471 299.85464 301.85461 305.85458">SPD10.7[9.9;11.4]10.7[10.1;11.2]</tspan><tspan
         id="tspan158"
         y="17.971775"
         x="-20.74934 -16.333395 -10.589468 111.11781 115.11776 119.11771 121.11768 127.44561 130.10957 134.10953 138.10947 140.10945 144.10941 148.70534 152.70529 156.70525 158.70522 162.70517 166.70511 254.21042 258.21036 262.21033 264.2103 270.59503 273.25897 277.25894 281.25888 283.25885 287.25882 291.85477 295.85471 299.85464 301.85461 305.85458">FDP17.2[16.8;17.66]14.1[13.7;14.4]</tspan><tspan
         id="tspan160"
         y="26.986063"
         x="-20.74934 -15.421408">Bu</tspan><tspan
         id="tspan162"
         y="26.929262"
         x="-14.739816">¨</tspan><tspan
         id="tspan164"
         y="26.986063"
         x="-11.451857 -7.4519067 -3.4519567 0.54799312 2.795965 8.2206974 12.220647">ndnis90</tspan></text>
<text
       id="text166"
       style="font-variant:normal;font-weight:normal;font-size:7.99989986px;font-family:AdvP4C4E59;-inkscape-font-specification:AdvP4C4E59;writing-mode:lr-tb;fill:#231f20;fill-opacity:1;fill-rule:nonzero;stroke:none"
       transform="matrix(1,0,0,-1,85.153522,94.279863)"><tspan
         id="tspan168"
         y="0"
         x="0">/</tspan></text>
<text
       id="text170"
       style="font-variant:normal;font-weight:normal;font-size:7.99989986px;font-family:AdvPS6F00;-inkscape-font-specification:AdvPS6F00;writing-mode:lr-tb;fill:#231f20;fill-opacity:1;fill-rule:nonzero;stroke:none"
       transform="matrix(1,0,0,-1,89.122272,94.279863)"><tspan
         id="tspan172"
         y="0"
         x="0 5.7439284 8.4078951 11.98385 15.559806 19.559755 94.90361 98.903564 100.90354 107.26266 109.92663 113.92657 115.92655 119.9265 124.55364 128.55359 130.55357 134.55351 238.05223 242.05217 244.05215 250.41127 253.07524 257.0752 259.07516 263.0751 267.70224 271.70221 273.70218 277.70212">Greens7.5[7.0;8.0]7.1[6.7;7.5]</tspan><tspan
         id="tspan174"
         y="9.014287"
         x="-40.932289 -36.516342 -30.772415 94.90361 98.903564 100.90354 107.26266 109.92663 113.92657 115.92655 119.9265 124.55364 128.55359 130.55357 134.55351 238.05223 242.05217 244.05215 250.41127 253.07524 257.0752 259.07516 263.0751 267.70224 271.70221 273.70218 277.70212">PDS4.0[3.0;5.0]1.3[0.6;2.0]</tspan></text>
<text
       id="text176"
       style="font-variant:normal;font-weight:normal;font-size:7.99989986px;font-family:AdvPS6F0B;-inkscape-font-specification:AdvPS6F0B;writing-mode:lr-tb;fill:#231f20;fill-opacity:1;fill-rule:nonzero;stroke:none"
       transform="matrix(1,0,0,-1,48.189984,67.2938)"><tspan
         id="tspan178"
         y="0"
         x="0 3.9999499 7.9998999 11.99985 15.079811 18.655767">Source</tspan></text>
<text
       id="text180"
       style="font-variant:normal;font-weight:normal;font-size:7.99989986px;font-family:AdvPS6F00;-inkscape-font-specification:AdvPS6F00;writing-mode:lr-tb;fill:#231f20;fill-opacity:1;fill-rule:nonzero;stroke:none"
       transform="matrix(1,0,0,-1,70.356907,67.2938)"><tspan
         id="tspan182"
         y="0"
         x="0 4.3087463 11.388658 15.420608 20.332546 23.908501 27.908451 31.484406 34.148373 38.097923 43.84185 47.9058 53.233734 56.809689 60.809639 64.809593 67.057564 71.263107 74.839066 78.839012 84.869339 87.949303 91.95565 97.699577 101.27554 103.9395 106.60347 110.60342 114.63297 117.29694 122.20887 126.20882 128.45679 131.12076 134.69672 138.27267 140.42865 142.67662 146.67656 152.7309 157.14684 161.14679 163.39476 165.64273 169.21869 175.18102 179.59695 183.59691 186.67686 188.92484 191.17281 193.42078 197.42073 201.42068 206.47581 209.13979 211.80376 215.8037 224.0508 228.46675 232.46669 234.71466 236.96263 239.21062 241.45859 245.03453 248.61049 252.85124 257.76318 261.33914 265.33908 267.58707 272.63739 278.38132 281.46127 283.70926 287.7092 293.72754 301.30344 305.30338 307.96735 311.96729 317.02805 320.604">:M.Laver,K.BenoitandJ.Garry,‘ExtractingPolicyPositionsfromPoliticalTextsUsingWordsas</tspan><tspan
         id="tspan184"
         y="9.014287"
         x="-22.166924 -16.422995 -12.847039 -10.599068 -7.0231123 -4.3591456">Data’,</tspan></text>
<text
       id="text186"
       style="font-variant:normal;font-weight:normal;font-size:7.99989986px;font-family:AdvPS6F0B;-inkscape-font-specification:AdvPS6F0B;writing-mode:lr-tb;fill:#231f20;fill-opacity:1;fill-rule:nonzero;stroke:none"
       transform="matrix(1,0,0,-1,70.356907,58.279513)"><tspan
         id="tspan188"
         y="0"
         x="0 4.9119387 10.655867 14.231822 17.311783 19.559755 23.135712 27.13566 33.449181 38.361122 42.361069 44.609043 46.857014 49.104984 51.352959 54.928913 58.928864 63.552807 67.552757 71.128708 73.376686 76.952637 80.952591 84.528542 90.42527 95.337212 98.913162 102.48912 104.73709 108.31305">AmericanPoliticalScienceReview</tspan></text>
<text
       id="text190"
       style="font-variant:normal;font-weight:normal;font-size:7.99989986px;font-family:AdvPS6F00;-inkscape-font-specification:AdvPS6F00;writing-mode:lr-tb;fill:#231f20;fill-opacity:1;fill-rule:nonzero;stroke:none"
       transform="matrix(1,0,0,-1,186.34986,58.279513)"><tspan
         id="tspan192"
         y="0"
         x="0 3.9999499">97</tspan></text>
<text
       id="text194"
       style="font-variant:normal;font-weight:normal;font-size:7.99989986px;font-family:AdvP4C4E59;-inkscape-font-specification:AdvP4C4E59;writing-mode:lr-tb;fill:#231f20;fill-opacity:1;fill-rule:nonzero;stroke:none"
       transform="matrix(1,0,0,-1,194.34336,58.279513)"><tspan
         id="tspan196"
         y="0"
         x="0">/</tspan></text>
<text
       id="text198"
       style="font-variant:normal;font-weight:normal;font-size:7.99989986px;font-family:AdvPS6F00;-inkscape-font-specification:AdvPS6F00;writing-mode:lr-tb;fill:#231f20;fill-opacity:1;fill-rule:nonzero;stroke:none"
       transform="matrix(1,0,0,-1,198.31211,58.279513)"><tspan
         id="tspan200"
         y="0"
         x="0 6.4063201 9.0702868 13.070236 17.070187 21.070137 25.070087 27.734053 32.088398 36.088348 40.088299 42.088272 46.088223 50.088173 54.822514 59.584854 63.584805 67.584755 72.227097 77.555031 81.554977 87.802902 94.050827 97.626778 101.62673 103.74831 106.82826 111.5154 114.17937 117.75533 120.4193 123.99525 126.65922 130.23517 134.23512 137.81108 143.71741 145.96538 149.54134 153.54128 155.78925 161.23558 164.81154 167.47551 173.42422 175.67221 179.67215">2(2003),pp.311–31;Comments:referencetextsarethe</tspan><tspan
         id="tspan202"
         y="9.014287"
         x="-150.12212 -147.45816 -143.8822 -139.88225 -136.30629 -133.64233 -130.06638 -125.46083 -121.88488 -119.6369 -116.06095 -112.48499 -110.23702 -107.98905 -103.9891 -97.624382 -91.376457 -87.800499 -83.800552 -81.552582 -78.888611 -75.31266 -72.232697 -70.071922 -66.071976 -60.604042 -56.604092 -51.532955 -46.205021 -40.461094">federalelectionmanifestosofCDU</tspan></text>
<text
       id="text204"
       style="font-variant:normal;font-weight:normal;font-size:7.99989986px;font-family:AdvP4C4E59;-inkscape-font-specification:AdvP4C4E59;writing-mode:lr-tb;fill:#231f20;fill-opacity:1;fill-rule:nonzero;stroke:none"
       transform="matrix(1,0,0,-1,163.55974,49.265225)"><tspan
         id="tspan206"
         y="0"
         x="0">/</tspan></text>
<text
       id="text208"
       style="font-variant:normal;font-weight:normal;font-size:7.99989986px;font-family:AdvPS6F00;-inkscape-font-specification:AdvPS6F00;writing-mode:lr-tb;fill:#231f20;fill-opacity:1;fill-rule:nonzero;stroke:none"
       transform="matrix(1,0,0,-1,167.52849,49.265225)"><tspan
         id="tspan210"
         y="0"
         x="0 5.3279333 9.7438784 15.487806 19.842152 24.258097 28.674042 34.417969 38.777916 43.193859 48.93779 55.728905 59.304859 63.30481 69.675133 71.923103 75.92305 81.863777 86.775719 90.351669 93.431633 95.679604 99.255562 101.91953 108.28265 114.02657 117.60253 120.26649 126.51442 130.09038 136.4023 141.73022">CSU,SPD,FDPandtheEasternGermanBu</tspan><tspan
         id="tspan212"
         y="-0.11359858"
         x="142.41182">¨</tspan><tspan
         id="tspan214"
         y="0"
         x="145.69978 149.69972 153.69968 157.69963 159.9476 165.37233 169.37228">ndnis90</tspan></text>
<text
       id="text216"
       style="font-variant:normal;font-weight:normal;font-size:7.99989986px;font-family:AdvP4C4E59;-inkscape-font-specification:AdvP4C4E59;writing-mode:lr-tb;fill:#231f20;fill-opacity:1;fill-rule:nonzero;stroke:none"
       transform="matrix(1,0,0,-1,340.89433,49.265225)"><tspan
         id="tspan218"
         y="0"
         x="0">/</tspan></text>
<text
       id="text220"
       style="font-variant:normal;font-weight:normal;font-size:7.99989986px;font-family:AdvPS6F00;-inkscape-font-specification:AdvPS6F00;writing-mode:lr-tb;fill:#231f20;fill-opacity:1;fill-rule:nonzero;stroke:none"
       transform="matrix(1,0,0,-1,344.86308,49.265225)"><tspan
         id="tspan222"
         y="0"
         x="0 5.7439284 8.4078951">Gru</tspan><tspan
         id="tspan224"
         y="-0.11359858"
         x="9.0710869">¨</tspan><tspan
         id="tspan226"
         y="0"
         x="12.415845 16.415794 22.33732 24.585293 31.011612 35.011562 39.011513 43.011463 47.011414">nein1990.</tspan><tspan
         y="0"
         x="0"
         id="tspan228" /></text>
</g></svg>